<svg xmlns="http://www.w3.org/2000/svg" width="16" height="16" viewBox="0 0 16 16"><defs><style>.a{fill:#017674;}</style></defs><path class="a" d="M4.72,4.08a.45.45,0,1,0-.45-.45A.45.45,0,0,0,4.72,4.08Z"/><path class="a" d="M8,.91A7.09,7.09,0,1,1,.91,8,7.09,7.09,0,0,1,8,.91M8,0a8,8,0,1,0,8,8A8,8,0,0,0,8,0Z"/><path class="a" d="M8,14A6,6,0,0,1,3,4.73a.45.45,0,0,1,.63-.13.44.44,0,0,1,.13.62,5.11,5.11,0,1,0,2.77-2.1.451.451,0,0,1-.27-.86A6,6,0,1,1,8,14Z"/><path class="a" d="M6.35,11a.54.54,0,0,1-.3-.1.5.5,0,0,1-.19-.49l.27-1.58L5,7.73a.49.49,0,0,1-.13-.51.5.5,0,0,1,.4-.34l1.6-.24.7-1.44a.5.5,0,0,1,.9,0l.71,1.44,1.6.22a.5.5,0,0,1,.4.34.48.48,0,0,1-.14.52L9.87,8.84l.28,1.56v.11a.51.51,0,0,1-.5.5A.43.43,0,0,1,9.44,11L8,10.21,6.58,11a.46.46,0,0,1-.23,0ZM6.53,10.53ZM6.26,10.34ZM5.71,7.5,6.86,8.61l-.27,1.57L8,9.44l1.41.74L9.14,8.6l1.14-1.12L8.7,7.26,8,5.83,7.3,7.26ZM5.44,7.24ZM10.54,7.24Z"/></svg>