<svg xmlns="http://www.w3.org/2000/svg" width="30.4" height="16" viewBox="0 0 30.4 16"><defs><style>.a{fill:#ec8926;}</style></defs><path class="a" d="M19.1,10.6a1.9,1.9,0,1,1-1.9,1.9,1.9,1.9,0,0,1,1.9-1.9m0-1.6a3.5,3.5,0,1,0,3.5,3.5A3.5,3.5,0,0,0,19.1,9Z"/><path class="a" d="M3.5,10.6a1.9,1.9,0,1,1-1.9,1.9,1.9,1.9,0,0,1,1.9-1.9M3.5,9A3.5,3.5,0,1,0,7,12.5,3.5,3.5,0,0,0,3.5,9Z"/><path class="a" d="M26.9,1.6A1.9,1.9,0,1,1,25,3.5a1.9,1.9,0,0,1,1.9-1.9m0-1.6a3.5,3.5,0,1,0,3.5,3.5A3.5,3.5,0,0,0,26.9,0Z"/><path class="a" d="M11.3,1.6A1.9,1.9,0,1,1,9.4,3.5a1.9,1.9,0,0,1,1.9-1.9m0-1.6a3.5,3.5,0,1,0,3.5,3.5A3.5,3.5,0,0,0,11.3,0Z"/><path class="a" d="M8.33,5.35,5,9.36a3.51,3.51,0,0,1,1.24,1l3.19-3.9a3.52,3.52,0,0,1-1.1-1.11Z"/><path class="a" d="M24.17,5.69,21.1,9.63a3.52,3.52,0,0,1,1.08,1.22l3.26-4.17a3.53,3.53,0,0,1-1.27-.99Z"/><path class="a" d="M17.65,9.32,14,5.69a3.46,3.46,0,0,1-1.28,1l3.62,3.63a3.46,3.46,0,0,1,1.31-1Z"/></svg>